PathFileType  4	(X/Y/Z) C:\Users\antoi\Documents\MyRepositories\mobilecap\ResultsAnalysis
DataRate	CameraRate	NumFrames	NumMarkers	Units	OrigDataRate	OrigDataStartFrame	OrigNumFrames
100.0	100.0	4	51	mm	100.0	17	132
Frame#	Time	r_knee			r_shank_antsup			r_ankle			r_calc			r_5meta			r_toe			L_knee			L_shank_antsup			L_ankle			L_calc			L_5meta			L_toe			r_sh2			r_sh3			r_sh4			L_sh2			L_sh3			r_thigh1			r_thigh2			r_thigh3			r_thigh4			r_thigh5			L_thigh1			L_thigh2			L_thigh3			L_thigh4			r.ASIS			r.PSIS			L.ASIS			L.PSIS			C7			R_Shoulder			L_Shoulder			R_Sternum			L_Sternum			R_humerus			R_elbow_med			R_elbow_lat			R_forearm			R_wrist_radius			R_wrist_ulna			L_humerus			L_elbow_med			L_elbow_lat			L_forearm			L_wrist_radius			L_wrist_ulna			R_HJC			L_HJC			R_HJC_reg			L_HJC_reg			
		X1	Y1	Z1	X2	Y2	Z2	X3	Y3	Z3	X4	Y4	Z4	X5	Y5	Z5	X6	Y6	Z6	X7	Y7	Z7	X8	Y8	Z8	X9	Y9	Z9	X10	Y10	Z10	X11	Y11	Z11	X12	Y12	Z12	X13	Y13	Z13	X14	Y14	Z14	X15	Y15	Z15	X16	Y16	Z16	X17	Y17	Z17	X18	Y18	Z18	X19	Y19	Z19	X20	Y20	Z20	X21	Y21	Z21	X22	Y22	Z22	X23	Y23	Z23	X24	Y24	Z24	X25	Y25	Z25	X26	Y26	Z26	X27	Y27	Z27	X28	Y28	Z28	X29	Y29	Z29	X30	Y30	Z30	X31	Y31	Z31	X32	Y32	Z32	X33	Y33	Z33	X34	Y34	Z34	X35	Y35	Z35	X36	Y36	Z36	X37	Y37	Z37	X38	Y38	Z38	X39	Y39	Z39	X40	Y40	Z40	X41	Y41	Z41	X42	Y42	Z42	X43	Y43	Z43	X44	Y44	Z44	X45	Y45	Z45	X46	Y46	Z46	X47	Y47	Z47	X48	Y48	Z48	X49	Y49	Z49	X50	Y50	Z50	X51	Y51	Z51	

17	0.16000000	164.65183	466.46689	-136.02934	214.88117	358.23705	-164.62164	159.09711	85.00255	-202.57977	113.88642	54.89186	-260.37121	272.60157	40.34657	-175.16682	312.00214	59.40298	-216.57425	-6.57881	431.32687	-419.54813	-46.24313	323.28437	-380.84382	-324.62938	209.30941	-390.95957	-374.34273	236.11068	-345.96297	-314.89739	71.82652	-379.71414	-272.59077	62.32121	-328.89434	212.62903	247.60977	-188.64919	161.76792	344.31789	-110.53575	143.40092	236.98321	-140.94642	-68.93661	378.32543	-444.12601	-169.44951	311.61739	-451.66647	156.33720	780.17022	-117.60818	195.96524	676.45835	-127.87073	163.96502	635.86943	-83.01157	67.34898	739.92759	-66.36405	107.25234	633.51838	-75.02850	85.70676	717.89594	-423.77354	92.51599	580.98843	-426.66636	-22.09308	718.06840	-449.43591	-17.91175	577.62223	-440.52113	131.90013	924.30400	-144.27717	-56.60280	955.72554	-207.43323	130.12774	897.69306	-384.34623	-58.08576	949.20599	-324.45779	-39.77509	1404.83335	-254.69863	2.13259	1368.33857	-100.83930	35.97557	1386.97718	-406.80774	86.92422	1356.86726	-227.37132	91.33995	1356.01964	-270.43836	6.07225	1238.38672	-36.90995	-67.02433	1048.54794	-111.07757	-67.25536	1056.41665	-35.05837	-47.19985	934.77803	-2.57321	-41.63054	831.23446	7.55297	-81.52963	834.07926	10.94616	75.74896	1248.16358	-478.69357	36.37064	1043.48682	-450.80515	48.53918	1063.56381	-519.60210	134.74068	1005.99781	-536.70161	226.69482	914.55354	-523.17271	207.38985	895.74262	-541.65440	41.79988	848.83615	-158.32422	43.21012	826.86676	-346.42655	61.65172	844.30505	-172.56855	59.64596	835.44012	-331.73025	
18	0.17000000	170.23347	466.08117	-135.07726	219.61169	357.28218	-164.07748	159.54188	85.17395	-202.80217	113.99853	54.93698	-260.39042	272.77293	40.12530	-175.16235	312.21426	58.96815	-216.57060	20.98786	430.99539	-419.83877	-20.60237	323.94953	-380.67970	-301.17358	218.12477	-394.02142	-349.83802	247.98397	-349.95806	-298.95407	79.49521	-381.36192	-257.21450	68.31236	-330.33897	215.69318	246.75892	-188.40645	166.16892	344.06695	-110.16716	146.19961	237.06636	-140.89896	-40.70574	378.87047	-444.85388	-142.87071	314.77862	-453.22138	168.00859	779.92564	-115.81929	205.76064	675.22483	-125.88499	172.42112	635.25359	-81.67682	77.66948	741.36522	-65.35633	115.68294	634.20996	-73.85133	102.07696	719.71723	-423.06873	114.09845	583.26934	-427.15023	-5.66106	716.22439	-448.64659	3.76130	575.89803	-440.30646	144.69507	925.64681	-143.31927	-43.69939	957.74015	-205.75684	141.93829	899.66739	-383.41188	-45.95125	950.50082	-322.91162	-27.39320	1406.77896	-253.44621	15.61443	1370.87028	-99.89878	47.50671	1389.10166	-405.81198	99.46692	1359.14520	-226.87506	103.64527	1358.21009	-269.90117	21.10220	1241.03516	-35.85630	-51.39110	1050.63962	-109.07307	-50.45944	1058.25936	-33.10799	-26.98601	936.73801	-1.26750	-18.93708	833.55400	8.59921	-58.50205	835.17954	12.51830	86.64192	1249.93722	-477.48930	45.18447	1045.87930	-448.28588	57.26399	1065.40744	-517.36223	141.62474	1005.46331	-535.16411	230.67648	911.10551	-522.35414	210.66967	892.93891	-540.69026	54.60761	850.40009	-157.14324	55.27409	828.59541	-345.25953	74.18420	846.94685	-170.79563	71.13238	837.11507	-329.85767	
19	0.18000000	175.06822	465.72138	-133.89952	223.70354	356.37200	-163.30784	159.94696	85.29014	-202.99125	114.12115	54.97652	-260.39832	272.89920	39.87941	-175.09565	312.35565	58.60481	-216.46698	48.30441	431.53435	-420.09719	5.33268	325.20206	-380.32772	-276.61142	225.90664	-396.85186	-324.81265	257.68004	-353.75369	-279.24731	86.72786	-383.22794	-238.25642	74.49895	-331.76242	218.32246	245.97285	-187.95190	169.91309	343.75564	-109.60888	148.54264	237.10425	-140.71969	-12.23918	379.82687	-445.48008	-115.66367	317.86693	-454.79591	179.15640	779.63535	-113.97011	215.02075	674.00705	-123.73974	180.21206	634.67493	-80.19657	87.35173	742.78727	-64.38997	123.51246	634.92085	-72.70703	118.11003	721.97799	-422.57051	135.20007	586.16795	-427.66806	10.41724	714.88035	-447.87475	25.08557	574.86236	-439.93764	157.36625	926.80783	-142.53933	-30.99586	959.65058	-203.98631	153.50627	901.62946	-382.88808	-34.07834	951.72642	-321.19457	-15.10594	1408.65920	-252.13371	29.16408	1373.29699	-98.92000	58.68960	1391.09152	-404.92979	111.93361	1361.35316	-226.43694	115.79319	1360.34527	-269.46054	36.17910	1243.56156	-34.82211	-36.05592	1052.62188	-106.84999	-33.71794	1059.99803	-30.99859	-6.60763	938.69157	0.09865	4.18963	835.96419	9.60963	-35.04877	836.28642	14.16443	97.31097	1251.51083	-476.28624	53.87285	1048.06603	-445.84666	66.00232	1067.06399	-515.16352	148.31199	1004.77167	-533.71177	234.29342	907.57819	-521.58447	213.56984	890.09650	-539.79879	67.35080	851.78078	-156.12313	67.03449	830.30233	-344.27068	86.55000	849.43132	-169.23056	82.36401	838.66713	-328.32602	
20	0.19000000	179.46702	465.51064	-132.63686	227.30927	355.56652	-162.43599	160.31255	85.37057	-203.13121	114.23625	55.02253	-260.38734	272.98527	39.61687	-174.98082	312.42673	58.28797	-216.29673	75.28529	432.96343	-420.29986	31.45264	327.00861	-379.79940	-251.14283	232.55278	-399.31733	-299.45792	265.09789	-357.08409	-255.91357	93.18486	-385.40009	-215.65172	80.47669	-333.36347	220.62205	245.29116	-187.38519	173.21406	343.45967	-108.91610	150.59210	237.15655	-140.41011	16.25171	381.23448	-445.96066	-88.05447	320.87321	-456.26160	189.83467	779.40783	-112.20689	223.86210	672.98027	-121.67237	187.61511	634.27658	-78.71327	96.59591	744.21905	-63.44473	130.99687	635.72475	-71.64638	133.88877	724.71569	-422.19236	155.86524	589.69778	-428.12919	26.22264	714.08229	-446.98080	46.12782	574.53870	-439.38528	169.89267	927.93511	-141.89490	-18.52206	961.49654	-202.24703	164.93227	903.60609	-382.67008	-22.40351	952.91330	-319.41509	-2.90660	1410.50760	-250.78448	42.76350	1375.59894	-97.90849	69.58281	1392.93744	-404.16822	124.34238	1363.47637	-226.04706	127.80096	1362.41945	-269.10540	51.29818	1245.93088	-33.82254	-20.98713	1054.45970	-104.41242	-16.98103	1061.58529	-28.74407	13.91089	940.64393	1.52730	27.74901	838.43080	10.56784	-11.22369	837.42291	15.86022	107.72933	1252.85493	-475.10063	62.42529	1050.01218	-443.48494	74.73967	1068.50917	-513.00514	154.81930	1003.94479	-532.33053	237.57106	904.00578	-520.87246	216.14665	887.24397	-539.00513	80.00429	853.09204	-155.24145	78.60602	832.01087	-343.42738	98.75770	851.82673	-167.86101	93.47524	840.14996	-327.09415	
